<mxfile host="app.diagrams.net" modified="2022-07-29T09:57:48.969Z" agent="5.0 (Macintosh; Intel Mac OS X 10_15_7) AppleWebKit/537.36 (KHTML, like Gecko) Chrome/103.0.0.0 Safari/537.36" etag="MQVf52ODiR308BX5fGWV" version="20.2.2" type="github">
  <diagram id="C5RBs43oDa-KdzZeNtuy" name="Page-1">
    <mxGraphModel dx="1426" dy="606" grid="1" gridSize="10" guides="1" tooltips="1" connect="1" arrows="1" fold="1" page="1" pageScale="1" pageWidth="827" pageHeight="1169" math="0" shadow="0">
      <root>
        <mxCell id="WIyWlLk6GJQsqaUBKTNV-0" />
        <mxCell id="WIyWlLk6GJQsqaUBKTNV-1" parent="WIyWlLk6GJQsqaUBKTNV-0" />
        <mxCell id="yNPxZpSD1YruV2so6bn6-4" value="认证" style="ellipse;whiteSpace=wrap;html=1;" parent="WIyWlLk6GJQsqaUBKTNV-1" vertex="1">
          <mxGeometry x="120" y="350" width="450" height="440" as="geometry" />
        </mxCell>
        <mxCell id="yNPxZpSD1YruV2so6bn6-0" value="用户名密码认证" style="html=1;" parent="WIyWlLk6GJQsqaUBKTNV-1" vertex="1">
          <mxGeometry x="200" y="420" width="110" height="50" as="geometry" />
        </mxCell>
        <mxCell id="yNPxZpSD1YruV2so6bn6-1" value="手机号认证" style="html=1;" parent="WIyWlLk6GJQsqaUBKTNV-1" vertex="1">
          <mxGeometry x="380" y="420" width="110" height="50" as="geometry" />
        </mxCell>
        <mxCell id="yNPxZpSD1YruV2so6bn6-2" value="Google OTP" style="html=1;" parent="WIyWlLk6GJQsqaUBKTNV-1" vertex="1">
          <mxGeometry x="200" y="510" width="110" height="50" as="geometry" />
        </mxCell>
        <mxCell id="yNPxZpSD1YruV2so6bn6-3" value="邮箱认证" style="html=1;" parent="WIyWlLk6GJQsqaUBKTNV-1" vertex="1">
          <mxGeometry x="380" y="510" width="110" height="50" as="geometry" />
        </mxCell>
        <mxCell id="yNPxZpSD1YruV2so6bn6-5" value="云盾认证" style="html=1;" parent="WIyWlLk6GJQsqaUBKTNV-1" vertex="1">
          <mxGeometry x="200" y="600" width="110" height="50" as="geometry" />
        </mxCell>
        <mxCell id="yNPxZpSD1YruV2so6bn6-6" value="idp回调认证" style="html=1;" parent="WIyWlLk6GJQsqaUBKTNV-1" vertex="1">
          <mxGeometry x="380" y="600" width="110" height="50" as="geometry" />
        </mxCell>
        <mxCell id="yNPxZpSD1YruV2so6bn6-7" value="WindowsAD认证" style="html=1;" parent="WIyWlLk6GJQsqaUBKTNV-1" vertex="1">
          <mxGeometry x="200" y="680" width="110" height="50" as="geometry" />
        </mxCell>
        <mxCell id="yNPxZpSD1YruV2so6bn6-8" value="Inline-Hook认证" style="html=1;" parent="WIyWlLk6GJQsqaUBKTNV-1" vertex="1">
          <mxGeometry x="380" y="680" width="110" height="50" as="geometry" />
        </mxCell>
        <mxCell id="oX8guQik7Rruaia-IkJ0-14" value="«interface»&lt;br&gt;&lt;b&gt;Template&lt;/b&gt;" style="html=1;" vertex="1" parent="WIyWlLk6GJQsqaUBKTNV-1">
          <mxGeometry x="660" y="770" width="110" height="50" as="geometry" />
        </mxCell>
        <mxCell id="oX8guQik7Rruaia-IkJ0-21" style="edgeStyle=orthogonalEdgeStyle;rounded=0;orthogonalLoop=1;jettySize=auto;html=1;" edge="1" parent="WIyWlLk6GJQsqaUBKTNV-1" source="oX8guQik7Rruaia-IkJ0-15" target="oX8guQik7Rruaia-IkJ0-20">
          <mxGeometry relative="1" as="geometry" />
        </mxCell>
        <mxCell id="oX8guQik7Rruaia-IkJ0-15" value="获取配置信息" style="rounded=0;whiteSpace=wrap;html=1;" vertex="1" parent="WIyWlLk6GJQsqaUBKTNV-1">
          <mxGeometry x="80" y="990" width="120" height="60" as="geometry" />
        </mxCell>
        <mxCell id="oX8guQik7Rruaia-IkJ0-17" value="saas" style="edgeStyle=orthogonalEdgeStyle;rounded=0;orthogonalLoop=1;jettySize=auto;html=1;exitX=0.5;exitY=1;exitDx=0;exitDy=0;entryX=0.5;entryY=0;entryDx=0;entryDy=0;" edge="1" parent="WIyWlLk6GJQsqaUBKTNV-1" source="oX8guQik7Rruaia-IkJ0-16" target="oX8guQik7Rruaia-IkJ0-15">
          <mxGeometry relative="1" as="geometry" />
        </mxCell>
        <mxCell id="oX8guQik7Rruaia-IkJ0-19" value="paas" style="edgeStyle=orthogonalEdgeStyle;rounded=0;orthogonalLoop=1;jettySize=auto;html=1;entryX=0.6;entryY=-0.05;entryDx=0;entryDy=0;entryPerimeter=0;" edge="1" parent="WIyWlLk6GJQsqaUBKTNV-1" source="oX8guQik7Rruaia-IkJ0-16" target="oX8guQik7Rruaia-IkJ0-18">
          <mxGeometry relative="1" as="geometry" />
        </mxCell>
        <mxCell id="oX8guQik7Rruaia-IkJ0-16" value="判断是saas还是paas" style="rhombus;whiteSpace=wrap;html=1;" vertex="1" parent="WIyWlLk6GJQsqaUBKTNV-1">
          <mxGeometry x="60" y="820" width="160" height="110" as="geometry" />
        </mxCell>
        <mxCell id="oX8guQik7Rruaia-IkJ0-31" style="edgeStyle=orthogonalEdgeStyle;rounded=0;orthogonalLoop=1;jettySize=auto;html=1;exitX=0.5;exitY=1;exitDx=0;exitDy=0;fontSize=12;" edge="1" parent="WIyWlLk6GJQsqaUBKTNV-1" source="oX8guQik7Rruaia-IkJ0-18" target="oX8guQik7Rruaia-IkJ0-30">
          <mxGeometry relative="1" as="geometry" />
        </mxCell>
        <mxCell id="oX8guQik7Rruaia-IkJ0-18" value="获取配置信息" style="rounded=0;whiteSpace=wrap;html=1;" vertex="1" parent="WIyWlLk6GJQsqaUBKTNV-1">
          <mxGeometry x="535" y="1000" width="120" height="60" as="geometry" />
        </mxCell>
        <mxCell id="oX8guQik7Rruaia-IkJ0-23" value="默认" style="edgeStyle=orthogonalEdgeStyle;rounded=0;orthogonalLoop=1;jettySize=auto;html=1;exitX=0.5;exitY=1;exitDx=0;exitDy=0;" edge="1" parent="WIyWlLk6GJQsqaUBKTNV-1" source="oX8guQik7Rruaia-IkJ0-20" target="oX8guQik7Rruaia-IkJ0-22">
          <mxGeometry relative="1" as="geometry" />
        </mxCell>
        <mxCell id="oX8guQik7Rruaia-IkJ0-26" style="edgeStyle=orthogonalEdgeStyle;rounded=0;orthogonalLoop=1;jettySize=auto;html=1;fontSize=12;" edge="1" parent="WIyWlLk6GJQsqaUBKTNV-1" source="oX8guQik7Rruaia-IkJ0-20" target="oX8guQik7Rruaia-IkJ0-25">
          <mxGeometry relative="1" as="geometry" />
        </mxCell>
        <mxCell id="oX8guQik7Rruaia-IkJ0-27" value="自定义" style="edgeLabel;html=1;align=center;verticalAlign=middle;resizable=0;points=[];fontSize=12;" vertex="1" connectable="0" parent="oX8guQik7Rruaia-IkJ0-26">
          <mxGeometry x="-0.2261" relative="1" as="geometry">
            <mxPoint as="offset" />
          </mxGeometry>
        </mxCell>
        <mxCell id="oX8guQik7Rruaia-IkJ0-20" value="判断是默认还是自定义" style="rhombus;whiteSpace=wrap;html=1;" vertex="1" parent="WIyWlLk6GJQsqaUBKTNV-1">
          <mxGeometry x="65" y="1110" width="150" height="80" as="geometry" />
        </mxCell>
        <mxCell id="oX8guQik7Rruaia-IkJ0-29" style="edgeStyle=orthogonalEdgeStyle;rounded=0;orthogonalLoop=1;jettySize=auto;html=1;entryX=0.5;entryY=0;entryDx=0;entryDy=0;fontSize=12;" edge="1" parent="WIyWlLk6GJQsqaUBKTNV-1" source="oX8guQik7Rruaia-IkJ0-22" target="oX8guQik7Rruaia-IkJ0-24">
          <mxGeometry relative="1" as="geometry" />
        </mxCell>
        <mxCell id="oX8guQik7Rruaia-IkJ0-22" value="&lt;font style=&quot;font-size: 12px;&quot;&gt;根据&lt;span style=&quot;background-color: rgb(255, 255, 255); font-family: &amp;quot;Source Code Pro&amp;quot;, monospace;&quot;&gt;template生成&lt;br&gt;templateId,&lt;br&gt;subject,params&lt;br&gt;&lt;/span&gt;&lt;/font&gt;" style="rounded=0;whiteSpace=wrap;html=1;" vertex="1" parent="WIyWlLk6GJQsqaUBKTNV-1">
          <mxGeometry x="80" y="1300" width="120" height="60" as="geometry" />
        </mxCell>
        <mxCell id="oX8guQik7Rruaia-IkJ0-24" value="&lt;font style=&quot;font-size: 12px;&quot;&gt;&lt;span style=&quot;background-color: rgb(255, 255, 255); font-family: &amp;quot;Source Code Pro&amp;quot;, monospace;&quot;&gt;生成template&lt;br&gt;&lt;/span&gt;&lt;/font&gt;" style="rounded=0;whiteSpace=wrap;html=1;" vertex="1" parent="WIyWlLk6GJQsqaUBKTNV-1">
          <mxGeometry x="80" y="1460" width="120" height="60" as="geometry" />
        </mxCell>
        <mxCell id="oX8guQik7Rruaia-IkJ0-28" style="edgeStyle=orthogonalEdgeStyle;rounded=0;orthogonalLoop=1;jettySize=auto;html=1;fontSize=12;" edge="1" parent="WIyWlLk6GJQsqaUBKTNV-1" source="oX8guQik7Rruaia-IkJ0-25" target="oX8guQik7Rruaia-IkJ0-24">
          <mxGeometry relative="1" as="geometry">
            <Array as="points">
              <mxPoint x="326" y="1400" />
              <mxPoint x="140" y="1400" />
            </Array>
          </mxGeometry>
        </mxCell>
        <mxCell id="oX8guQik7Rruaia-IkJ0-25" value="根据template和type获取模板info" style="rounded=0;whiteSpace=wrap;html=1;fontSize=12;" vertex="1" parent="WIyWlLk6GJQsqaUBKTNV-1">
          <mxGeometry x="266" y="1300" width="120" height="60" as="geometry" />
        </mxCell>
        <mxCell id="oX8guQik7Rruaia-IkJ0-33" style="edgeStyle=orthogonalEdgeStyle;rounded=0;orthogonalLoop=1;jettySize=auto;html=1;entryX=0.5;entryY=0;entryDx=0;entryDy=0;fontSize=12;" edge="1" parent="WIyWlLk6GJQsqaUBKTNV-1" source="oX8guQik7Rruaia-IkJ0-30" target="oX8guQik7Rruaia-IkJ0-32">
          <mxGeometry relative="1" as="geometry" />
        </mxCell>
        <mxCell id="oX8guQik7Rruaia-IkJ0-34" value="默认" style="edgeLabel;html=1;align=center;verticalAlign=middle;resizable=0;points=[];fontSize=12;" vertex="1" connectable="0" parent="oX8guQik7Rruaia-IkJ0-33">
          <mxGeometry x="-0.24" y="1" relative="1" as="geometry">
            <mxPoint as="offset" />
          </mxGeometry>
        </mxCell>
        <mxCell id="oX8guQik7Rruaia-IkJ0-35" style="edgeStyle=orthogonalEdgeStyle;rounded=0;orthogonalLoop=1;jettySize=auto;html=1;fontSize=12;" edge="1" parent="WIyWlLk6GJQsqaUBKTNV-1" source="oX8guQik7Rruaia-IkJ0-30">
          <mxGeometry relative="1" as="geometry">
            <mxPoint x="770" y="1300" as="targetPoint" />
          </mxGeometry>
        </mxCell>
        <mxCell id="oX8guQik7Rruaia-IkJ0-37" value="自定义" style="edgeLabel;html=1;align=center;verticalAlign=middle;resizable=0;points=[];fontSize=12;" vertex="1" connectable="0" parent="oX8guQik7Rruaia-IkJ0-35">
          <mxGeometry x="-0.2417" relative="1" as="geometry">
            <mxPoint as="offset" />
          </mxGeometry>
        </mxCell>
        <mxCell id="oX8guQik7Rruaia-IkJ0-30" value="判断是默认还是自定义" style="rhombus;whiteSpace=wrap;html=1;" vertex="1" parent="WIyWlLk6GJQsqaUBKTNV-1">
          <mxGeometry x="520" y="1120" width="150" height="80" as="geometry" />
        </mxCell>
        <mxCell id="oX8guQik7Rruaia-IkJ0-32" value="&lt;font style=&quot;font-size: 12px;&quot;&gt;&lt;span style=&quot;background-color: rgb(255, 255, 255); font-family: &amp;quot;Source Code Pro&amp;quot;, monospace;&quot;&gt;return null&lt;br&gt;&lt;/span&gt;&lt;/font&gt;" style="rounded=0;whiteSpace=wrap;html=1;" vertex="1" parent="WIyWlLk6GJQsqaUBKTNV-1">
          <mxGeometry x="535" y="1300" width="120" height="60" as="geometry" />
        </mxCell>
        <mxCell id="oX8guQik7Rruaia-IkJ0-38" style="edgeStyle=orthogonalEdgeStyle;rounded=0;orthogonalLoop=1;jettySize=auto;html=1;entryX=0.5;entryY=0;entryDx=0;entryDy=0;fontSize=12;" edge="1" parent="WIyWlLk6GJQsqaUBKTNV-1" source="oX8guQik7Rruaia-IkJ0-36" target="oX8guQik7Rruaia-IkJ0-24">
          <mxGeometry relative="1" as="geometry">
            <Array as="points">
              <mxPoint x="770" y="1400" />
              <mxPoint x="140" y="1400" />
            </Array>
          </mxGeometry>
        </mxCell>
        <mxCell id="oX8guQik7Rruaia-IkJ0-36" value="根据template和type获取模板info" style="rounded=0;whiteSpace=wrap;html=1;fontSize=12;" vertex="1" parent="WIyWlLk6GJQsqaUBKTNV-1">
          <mxGeometry x="710" y="1300" width="120" height="60" as="geometry" />
        </mxCell>
      </root>
    </mxGraphModel>
  </diagram>
</mxfile>
